<svg xmlns="http://www.w3.org/2000/svg" width="30" height="31.95" viewBox="0 0 30 31.95">
  <g id="Group_11411" data-name="Group 11411" transform="translate(-2023.084 -86.823)">
    <path id="Path_21691" data-name="Path 21691" d="M2152.928,224.159c-1.106,0-2.212-.005-3.318,0a.626.626,0,0,1-.637-.416,7.876,7.876,0,0,0-1.745-2.536,8.965,8.965,0,0,1-1.53-1.968,8.6,8.6,0,0,1-1.071-2.33,5.722,5.722,0,0,1-.358-1.883,16.73,16.73,0,0,1,.057-1.825,9.349,9.349,0,0,1,.439-1.708,9.722,9.722,0,0,1,.733-1.546,9.409,9.409,0,0,1,1.217-1.587,11.634,11.634,0,0,1,1.819-1.429,5.842,5.842,0,0,1,1.268-.6,9.724,9.724,0,0,1,1.756-.483,3.9,3.9,0,0,1,.647-.074,9.376,9.376,0,0,1,2.11.061,8.9,8.9,0,0,1,2.648.911,10.829,10.829,0,0,1,1.668,1.108,8.194,8.194,0,0,1,1.686,1.97,6.6,6.6,0,0,1,.531.927,11.9,11.9,0,0,1,.6,1.825,8.805,8.805,0,0,1,.113,3.112,8.166,8.166,0,0,1-.538,1.952,11,11,0,0,1-1.841,3.007c-.4.49-.889.909-1.274,1.409a3.987,3.987,0,0,0-.648,1.09,6.685,6.685,0,0,1-.48.829c-.094.182-.277.187-.456.186Zm3.313-8.044h0c.462,0,.923,0,1.385,0a.478.478,0,0,0,.543-.546q0-1.045,0-2.09a.546.546,0,0,0-.615-.6c-.88,0-1.759,0-2.639,0-.224,0-.351-.066-.346-.308.016-.862-.031-1.724.025-2.585a.644.644,0,0,0-.668-.719c-.662,0-1.324,0-1.986,0a.577.577,0,0,0-.615.546,7.583,7.583,0,0,0-.016,1.563,7.434,7.434,0,0,1,0,1.2.287.287,0,0,1-.34.3c-.4-.012-.8,0-1.2,0-.479,0-.958-.005-1.437,0-.322.006-.588.194-.592.443-.014.766-.041,1.533.013,2.3.025.353.217.5.574.5.845,0,1.69,0,2.535,0,.377,0,.466.092.467.461,0,.854,0,1.707,0,2.561,0,.371.169.567.528.572.731.012,1.463.01,2.195,0a.553.553,0,0,0,.56-.487,1.881,1.881,0,0,0,.007-.235c0-.871,0-1.742,0-2.613,0-.19.045-.279.268-.268C2155.334,216.13,2155.788,216.114,2156.241,216.114Z" transform="translate(-114.846 -112.706)" fill="#b1b1b1"/>
    <path id="Path_21692" data-name="Path 21692" d="M2240.854,604.115c-1.027,0-2.054,0-3.081,0a.736.736,0,0,1-.694-.47.644.644,0,0,1,.173-.764.922.922,0,0,1,.7-.2c.181.006.364.023.546.023h5.379c.491,0,.789.251.792.661a.742.742,0,0,1-.815.746Q2242.356,604.116,2240.854,604.115Z" transform="translate(-202.754 -488.9)" fill="#b1b1b1"/>
    <path id="Path_21693" data-name="Path 21693" d="M2241.25,567.049c1.026,0,2.053,0,3.079,0a.708.708,0,0,1,.669.488.75.75,0,0,1-.3.8.655.655,0,0,1-.4.079h-5.532c-.234,0-.469.013-.7,0a.644.644,0,0,1-.679-.714.687.687,0,0,1,.738-.65C2239.162,567.046,2240.206,567.049,2241.25,567.049Z" transform="translate(-203.096 -455.128)" fill="#b1b1b1"/>
    <path id="Path_21694" data-name="Path 21694" d="M2241.227,639.038q1.555,0,3.109,0a.661.661,0,0,1,.708.667.673.673,0,0,1-.711.7q-3.109,0-6.219,0a.682.682,0,0,1-.7-.708.636.636,0,0,1,.706-.656Q2239.672,639.035,2241.227,639.038Z" transform="translate(-203.127 -523.354)" fill="#b1b1b1"/>
    <path id="Path_21695" data-name="Path 21695" d="M2300.885,89.243c0,.592.006,1.183,0,1.775-.005.413-.213.672-.527.685a.509.509,0,0,1-.6-.581c.063-1.243.013-2.487.025-3.731a.51.51,0,0,1,.314-.522.575.575,0,0,1,.632.116.647.647,0,0,1,.153.509C2300.889,88.077,2300.885,88.66,2300.885,89.243Z" transform="translate(-262.214)" fill="#b1b1b1"/>
    <path id="Path_21696" data-name="Path 21696" d="M2025.558,368.207H2023.7a.531.531,0,0,1-.416-.113c-.117-.121-.251-.228-.186-.447.087-.292.219-.515.552-.532.243-.012.487,0,.731,0h2.977a.538.538,0,0,1,.6.7.435.435,0,0,1-.495.395C2026.829,368.21,2026.193,368.207,2025.558,368.207Z" transform="translate(0 -265.639)" fill="#b1b1b1"/>
    <path id="Path_21697" data-name="Path 21697" d="M2506.862,368.109c-.617,0-1.235,0-1.852,0-.379,0-.537-.141-.549-.472a.543.543,0,0,1,.519-.621,1.537,1.537,0,0,1,.156,0c1.183,0,2.365.013,3.548-.007.419-.007.766.27.554.848a.439.439,0,0,1-.472.255q-.952,0-1.9,0Z" transform="translate(-456.218 -265.54)" fill="#b1b1b1"/>
    <path id="Path_21698" data-name="Path 21698" d="M2108.821,176.965a.511.511,0,0,1-.411-.18q-1.135-1.134-2.259-2.279a4.178,4.178,0,0,1-.485-.509c-.17-.244-.038-.431.088-.618a.385.385,0,0,1,.51-.127,1.813,1.813,0,0,1,.642.482q1.1,1.166,2.256,2.283a.56.56,0,0,1,.141.619A.442.442,0,0,1,2108.821,176.965Z" transform="translate(-78.189 -81.871)" fill="#b1b1b1"/>
    <path id="Path_21699" data-name="Path 21699" d="M2107.675,510.9c.181-.032.294.147.388.323a.432.432,0,0,1-.091.528c-.417.43-.817.875-1.253,1.287s-.811.855-1.232,1.266a.877.877,0,0,1-.6.323.5.5,0,0,1-.478-.258.494.494,0,0,1,.048-.542,2.674,2.674,0,0,1,.371-.4c.521-.51,1.03-1.033,1.542-1.553.268-.272.534-.546.8-.819A.725.725,0,0,1,2107.675,510.9Z" transform="translate(-77.015 -401.909)" fill="#b1b1b1"/>
    <path id="Path_21700" data-name="Path 21700" d="M2445.074,511.071c.268-.029.438.167.6.339.546.57,1.126,1.106,1.676,1.671a6.408,6.408,0,0,1,.865.9.464.464,0,0,1,0,.6.481.481,0,0,1-.784.074,9.142,9.142,0,0,1-.981-.935c-.547-.6-1.128-1.156-1.691-1.735a.508.508,0,0,1-.042-.763A.38.38,0,0,1,2445.074,511.071Z" transform="translate(-399.456 -402.074)" fill="#b1b1b1"/>
    <path id="Path_21701" data-name="Path 21701" d="M2446.635,174.056a.412.412,0,0,1,.448.256.482.482,0,0,1-.079.617c-.4.4-.806.791-1.194,1.2-.418.441-.908.808-1.29,1.286a1.033,1.033,0,0,1-.259.215c-.311.2-.559.173-.743-.057a.583.583,0,0,1,.082-.755q1.274-1.285,2.557-2.56A.6.6,0,0,1,2446.635,174.056Z" transform="translate(-398.361 -82.672)" fill="#b1b1b1"/>
    <path id="Path_21702" data-name="Path 21702" d="M2273.044,674.161c.53,0,1.06,0,1.59,0a1.446,1.446,0,0,1,.285.02c.256.053.3.183.123.379a2.519,2.519,0,0,1-1.636.832,2.406,2.406,0,0,1-2.234-.909c-.06-.072-.142-.149-.085-.252s.152-.072.236-.072c.573,0,1.147,0,1.721,0Z" transform="translate(-235.023 -556.64)" fill="#b1b1b1"/>
  </g>
</svg>
