<svg xmlns="http://www.w3.org/2000/svg" width="30.001" height="29.962" viewBox="0 0 30.001 29.962">
  <g id="beach" transform="translate(0 -0.327)">
    <g id="Group_11399" data-name="Group 11399" transform="translate(0 8.611)">
      <g id="Group_11398" data-name="Group 11398">
        <path id="Path_21677" data-name="Path 21677" d="M10.715,149.3l2.174-1.144-2.174-1.144,1.311-2.078-2.455.1.1-2.455-2.078,1.311-1.144-2.174L5.3,143.883l-2.078-1.311.1,2.455-2.455-.1,1.311,2.078L0,148.154,2.174,149.3.863,151.376l2.455-.1-.1,2.455L5.3,152.424,6.445,154.6l1.144-2.174,2.078,1.311-.1-2.455,2.455.1Zm-4.271,2.078a3.222,3.222,0,1,1,3.222-3.222A3.222,3.222,0,0,1,6.445,151.376Z" transform="translate(0 -141.709)" fill="#b1b1b1"/>
      </g>
    </g>
    <g id="Group_11401" data-name="Group 11401" transform="translate(0 26.773)">
      <g id="Group_11400" data-name="Group 11400">
        <path id="Path_21678" data-name="Path 21678" d="M26.992,452.719a3.126,3.126,0,0,1-3.989,0,4.867,4.867,0,0,0-6.011,0,3.125,3.125,0,0,1-3.988,0A4.7,4.7,0,0,0,10,451.68a4.7,4.7,0,0,0-3.005,1.039A2.958,2.958,0,0,1,5,453.438a2.957,2.957,0,0,1-1.994-.719A4.7,4.7,0,0,0,0,451.68v1.758a2.958,2.958,0,0,1,1.994.719A4.7,4.7,0,0,0,5,455.2,4.7,4.7,0,0,0,8,454.157,2.958,2.958,0,0,1,10,453.438a2.957,2.957,0,0,1,1.994.719,4.867,4.867,0,0,0,6.01,0,3.126,3.126,0,0,1,3.989,0,4.867,4.867,0,0,0,6.011,0A2.959,2.959,0,0,1,30,453.438V451.68A4.7,4.7,0,0,0,26.992,452.719Z" transform="translate(0 -451.68)" fill="#b1b1b1"/>
      </g>
    </g>
    <g id="Group_11403" data-name="Group 11403" transform="translate(2.486 0.327)">
      <g id="Group_11402" data-name="Group 11402" transform="translate(0 0)">
        <path id="Path_21679" data-name="Path 21679" d="M69.032,6.727a9.594,9.594,0,0,0-4.643-4.661L64.8.928l-1.652-.6-.415,1.139a9.68,9.68,0,0,0-11.551,6.04l-.355.975,1.02.19a15.125,15.125,0,0,1,4.683,1.7l.205.116.236,0h.089a9.127,9.127,0,0,1,2.283.29l-4.1,11.252c-.1,0-.207,0-.311,0a24.185,24.185,0,0,0-12.512,3.464,7.714,7.714,0,0,1,1.53.883c.514.361.568.4.983.4s.469-.038.983-.4a6.615,6.615,0,0,1,8.032,0c.514.361.568.4.983.4s.469-.038.983-.4a6.616,6.616,0,0,1,8.033,0c.514.361.568.4.983.4s.47-.038.983-.4a7.716,7.716,0,0,1,1.53-.883,24.138,24.138,0,0,0-10.364-3.369L61,11.38a9.13,9.13,0,0,1,2,1.3l.179.153.232.043a15.126,15.126,0,0,1,4.683,1.7l.9.51.355-.975A9.6,9.6,0,0,0,69.032,6.727Z" transform="translate(-42.429 -0.327)" fill="#b1b1b1"/>
      </g>
    </g>
  </g>
</svg>
