<svg xmlns="http://www.w3.org/2000/svg" width="30" height="30.9" viewBox="0 0 30 30.9">
  <g id="Group_11397" data-name="Group 11397" transform="translate(-546.646 -371.159)">
    <path id="Path_21674" data-name="Path 21674" d="M565.254,401.754a4.564,4.564,0,0,1-1.153.166,34.737,34.737,0,0,1-5.747.038,30.045,30.045,0,0,1-7.269-1.457,18.346,18.346,0,0,1-3.621-1.624,1.318,1.318,0,0,1-.707-1.021,9.814,9.814,0,0,1,.072-3.374,4.389,4.389,0,0,1,1.889-2.523,11.11,11.11,0,0,1,3.931-1.636c.9-.233,1.792-.458,2.687-.7a5.128,5.128,0,0,0,1.078-.436,1.59,1.59,0,0,0,.86-1.318.954.954,0,0,0-.185-.7,10.994,10.994,0,0,1-1.726-4,1.013,1.013,0,0,0-.339-.564,3.573,3.573,0,0,1-1.248-2.752c0-.267.066-.488.379-.508.177-.011.188-.1.19-.246.005-.53-.142-1.039-.184-1.563a6.872,6.872,0,0,1,.483-3.322,4.779,4.779,0,0,1,3.343-2.755,7.2,7.2,0,0,1,5.813.738,1.061,1.061,0,0,0,.311.136,4.07,4.07,0,0,1,3.285,3.521,15.58,15.58,0,0,1,.054,3.142c0,.143-.045.267.158.306a.331.331,0,0,1,.255.395,4.95,4.95,0,0,1-.619,2.326,1.169,1.169,0,0,1-.417.448.941.941,0,0,0-.462.811,9.907,9.907,0,0,1-.939,3.031,4.2,4.2,0,0,1-.488.744,1.251,1.251,0,0,0,.173,1.832,3.281,3.281,0,0,0,.825.484,16.921,16.921,0,0,0,2.9.808,12.223,12.223,0,0,1,4.091,1.518,4.4,4.4,0,0,1,2.122,2.824c.029.139.119.328-.006.413s-.24-.088-.348-.162c-1.2-.82-2.382-1.658-3.589-2.465a5.3,5.3,0,0,0-4.224-.935,4.249,4.249,0,0,0-2.374,1.652,7.287,7.287,0,0,0-1.6,4.221,4.58,4.58,0,0,0,1.047,3.435,4.046,4.046,0,0,0,1.024.85C565.075,401.589,565.191,401.62,565.254,401.754Z" fill="#b1b1b1"/>
    <path id="Path_21675" data-name="Path 21675" d="M797.66,683.739a6.221,6.221,0,0,1,1.506-4.159,3.272,3.272,0,0,1,3.626-1.114,8.732,8.732,0,0,1,2.533,1.4q2.349,1.6,4.69,3.219a.766.766,0,0,1,.24,1.176q-.978,1.448-1.977,2.883a.76.76,0,0,1-1.183.2c-.6-.4-1.194-.8-1.793-1.2a3.9,3.9,0,0,0-.439-.266,1.027,1.027,0,0,0-1.438.255,3.3,3.3,0,0,1-5.766-2.4Zm3.869-4.386a1.53,1.53,0,0,0-1.161.5,5.512,5.512,0,0,0-1.214,1.687c-.116.241-.092.363.209.355a4.483,4.483,0,0,1,2.65.8q2.626,1.747,5.229,3.527c.216.147.333.16.486-.074q.667-1.018,1.372-2.011c.171-.24.118-.359-.11-.513-1.8-1.219-3.584-2.452-5.379-3.673A3.667,3.667,0,0,0,801.529,679.352Z" transform="translate(-233.787 -286.085)" fill="#b1b1b1"/>
    <path id="Path_21676" data-name="Path 21676" d="M883.658,725.231a.537.537,0,0,1-.5-.771,11.722,11.722,0,0,1,.722-1.075.513.513,0,0,1,.724-.143.521.521,0,0,1,.142.726c-.208.352-.443.688-.672,1.027A.553.553,0,0,1,883.658,725.231Z" transform="translate(-313.376 -327.848)" fill="#b1b1b1"/>
  </g>
</svg>
