<svg xmlns="http://www.w3.org/2000/svg" width="30" height="39.822" viewBox="0 0 30 39.822">
  <g id="Group_11432" data-name="Group 11432" transform="translate(-3590.608 -471.81)">
    <path id="Path_21713" data-name="Path 21713" d="M3605.523,877.358a7.479,7.479,0,0,0-1.008.035,1.964,1.964,0,0,0-1.382.964.277.277,0,0,1-.361.153,2,2,0,0,0-1.968.559l-.962.961a1.993,1.993,0,0,0-.561,1.988.248.248,0,0,1-.13.328,2,2,0,0,0-1.02,1.7c-.008.137-.022.232-.2.2a19.124,19.124,0,0,1-5.331-1.57,4.836,4.836,0,0,1-1.373-.977,2.1,2.1,0,0,1-.616-1.525,21.651,21.651,0,0,1,.382-4.36,6.06,6.06,0,0,1,.5-1.439,3.391,3.391,0,0,1,2.36-1.772c.94-.238,1.9-.371,2.84-.618a11.136,11.136,0,0,0,3.808-1.814c.25-.184.248-.183.368.09a1.291,1.291,0,0,0,.484.546,5.209,5.209,0,0,0,2.064.764,11.684,11.684,0,0,0,5.08-.161,4.238,4.238,0,0,0,1.408-.628,1.058,1.058,0,0,0,.458-.563c.068-.256.16-.2.318-.081a10.9,10.9,0,0,0,3.591,1.776c.819.232,1.658.373,2.49.548.249.052.495.116.741.179a3.474,3.474,0,0,1,2.577,2.614,12.2,12.2,0,0,1,.42,2.39c.068.791.079,1.586.111,2.38a2.313,2.313,0,0,1-.967,1.994,7.521,7.521,0,0,1-2.111,1.139,22.918,22.918,0,0,1-4.195,1.079c-.2.034-.245-.021-.257-.211a1.981,1.981,0,0,0-1.03-1.694.22.22,0,0,1-.127-.287,2.044,2.044,0,0,0-.629-2.1c-.312-.295-.608-.606-.914-.908a1.967,1.967,0,0,0-1.93-.532.293.293,0,0,1-.379-.163,1.98,1.98,0,0,0-1.744-.986C3606.078,877.354,3605.832,877.358,3605.523,877.358Z" transform="translate(0 -379.232)" fill="#b1b1b1"/>
    <path id="Path_21714" data-name="Path 21714" d="M3748.635,471.81a6.91,6.91,0,0,1,4.355,1.357.535.535,0,0,0,.1.064,4.281,4.281,0,0,1,2.3,2.918,14.16,14.16,0,0,1,.425,2.8c.017.206.039.411.056.617a.813.813,0,0,0,.217.5,1.622,1.622,0,0,1,.331,1.05,4.991,4.991,0,0,1-.612,2.731,1.051,1.051,0,0,1-.348.418,1.009,1.009,0,0,0-.4.565,11.7,11.7,0,0,1-2.577,3.975,6,6,0,0,1-3.018,1.733,4.525,4.525,0,0,1-3.47-.755,9.644,9.644,0,0,1-3.079-3.456,12.679,12.679,0,0,1-.791-1.681c-.031-.08-.046-.174-.135-.217a1.749,1.749,0,0,1-.824-1.04,4.731,4.731,0,0,1-.312-2.754,1.066,1.066,0,0,1,.417-.724c.133-.089.109-.239.11-.371a13.712,13.712,0,0,1,.29-2.84,5.128,5.128,0,0,1,1.41-2.785,2.085,2.085,0,0,1,.33-.274,10.175,10.175,0,0,1,3.429-1.659A9.666,9.666,0,0,1,3748.635,471.81Z" transform="translate(-142.99)" fill="#b1b1b1"/>
    <path id="Path_21715" data-name="Path 21715" d="M3790.638,1059.754c0,.231,0,.461,0,.692a.577.577,0,0,1-.514.616c-.233.047-.469.088-.7.123a.284.284,0,0,0-.24.2c-.262.629-.264.628.149,1.19.336.458.321.674-.079,1.074-.275.276-.548.554-.827.826a.62.62,0,0,1-.9.065l-.1-.07c-.569-.414-.568-.411-1.217-.134a.239.239,0,0,0-.162.208q-.054.365-.127.728a.574.574,0,0,1-.592.513q-.716.013-1.431,0a.573.573,0,0,1-.589-.489c-.051-.241-.1-.484-.126-.728a.268.268,0,0,0-.211-.25,2.922,2.922,0,0,1-.44-.181.27.27,0,0,0-.326.038c-.183.14-.371.274-.562.4a.586.586,0,0,1-.785-.054q-.526-.5-1.029-1.028a.562.562,0,0,1-.051-.744c.126-.193.265-.378.4-.566a.91.91,0,0,0,.081-.118,1.249,1.249,0,0,0-.425-.872c-.241-.048-.485-.084-.727-.13a.569.569,0,0,1-.514-.588c-.008-.485-.007-.97,0-1.455a.552.552,0,0,1,.456-.564c.255-.059.515-.1.774-.138.082-.013.155-.028.191-.116.085-.206.17-.411.26-.615.041-.093-.016-.152-.06-.215-.142-.2-.292-.4-.428-.6a.566.566,0,0,1,.07-.78q.49-.5,1-1a.578.578,0,0,1,.782-.073c.194.125.381.26.563.4a.275.275,0,0,0,.366.036.163.163,0,0,1,.065-.03c.481-.078.628-.406.64-.843a1.471,1.471,0,0,1,.052-.3.549.549,0,0,1,.544-.448q.751-.012,1.5,0a.548.548,0,0,1,.552.468c.052.241.1.484.126.728.018.149.11.2.224.268a.876.876,0,0,0,1.16-.14c.472-.389.673-.346,1.1.083q.4.4.792.793a.6.6,0,0,1,.074.91c-.114.163-.229.325-.344.487-.023.032-.049.063-.069.1a1.136,1.136,0,0,0,.42.888c.242.044.487.076.728.127a.574.574,0,0,1,.51.618C3790.642,1059.293,3790.639,1059.523,3790.638,1059.754Zm-6.027-2.368a2.372,2.372,0,1,0,2.373,2.361A2.367,2.367,0,0,0,3784.612,1057.386Z" transform="translate(-179.007 -554.156)" fill="#b1b1b1"/>
  </g>
</svg>
