<svg id="Group_11404" data-name="Group 11404" xmlns="http://www.w3.org/2000/svg" width="30" height="34.003" viewBox="0 0 30 34.003">
  <path id="Path_1912" data-name="Path 1912" d="M232.826,17.946,219.565,4.682A1.993,1.993,0,1,0,216.745,7.5l13.264,13.263a1.992,1.992,0,0,0,2.817-2.817Z" transform="translate(-203.809 -3.828)" fill="#b1b1b1"/>
  <path id="Path_1913" data-name="Path 1913" d="M142.317,82.905l-.1.5a21.415,21.415,0,0,1-4.723,9.566l7.215,7.215a21.344,21.344,0,0,1,9.52-4.769l.5-.1Z" transform="translate(-130.364 -77.399)" fill="#b1b1b1"/>
  <path id="Path_1914" data-name="Path 1914" d="M35.943,256.989l-4.931,4.93a2.988,2.988,0,0,0,0,4.227l2.817,2.817a2.988,2.988,0,0,0,4.227,0l4.931-4.931Zm.7,7.749a1,1,0,0,1-1.409-1.409l1.409-1.409a1,1,0,1,1,1.409,1.409Z" transform="translate(-30.136 -239.922)" fill="#b1b1b1"/>
  <path id="Path_1915" data-name="Path 1915" d="M198.086,352.663l1.355-1.355a2.986,2.986,0,0,0,0-4.226l-1.007-1.007a18.866,18.866,0,0,0-1.6,1.213l1.2,1.2a.994.994,0,0,1,0,1.408l-1.378,1.378-2.024-1.961-2.817,2.817,4.52,4.38a1.992,1.992,0,0,0,2.816-2.819Z" transform="translate(-181.076 -323.092)" fill="#b1b1b1"/>
  <path id="Path_1916" data-name="Path 1916" d="M332.86,0a1,1,0,0,0-1,1V2.989a1,1,0,1,0,1.992,0V1A1,1,0,0,0,332.86,0Z" transform="translate(-311.826)" fill="#b1b1b1"/>
  <path id="Path_1917" data-name="Path 1917" d="M424.853,120H422.86a1,1,0,1,0,0,1.992h1.992a1,1,0,0,0,0-1.992Z" transform="translate(-395.849 -112.031)" fill="#b1b1b1"/>
  <path id="Path_1918" data-name="Path 1918" d="M395.557,30.292a1,1,0,0,0-1.409,0l-1.992,1.992a1,1,0,1,0,1.409,1.409l1.992-1.992A1,1,0,0,0,395.557,30.292Z" transform="translate(-367.841 -28.007)" fill="#b1b1b1"/>
</svg>
