<svg xmlns="http://www.w3.org/2000/svg" width="30" height="28.75" viewBox="0 0 30 28.75">
  <g id="like" transform="translate(0 -10.667)">
    <g id="Group_11406" data-name="Group 11406" transform="translate(0 23.167)">
      <g id="Group_11405" data-name="Group 11405">
        <path id="Path_21680" data-name="Path 21680" d="M3.125,224A3.129,3.129,0,0,0,0,227.125v10a3.129,3.129,0,0,0,3.125,3.125h3.75a3.1,3.1,0,0,0,1.875-.633V224Z" transform="translate(0 -224)" fill="#b1b1b1"/>
      </g>
    </g>
    <g id="Group_11408" data-name="Group 11408" transform="translate(10 10.667)">
      <g id="Group_11407" data-name="Group 11407">
        <path id="Path_21681" data-name="Path 21681" d="M190.667,27.854a2.772,2.772,0,0,0-.814-1.968,3.1,3.1,0,0,0,.8-2.386,3.231,3.231,0,0,0-3.26-2.834h-7.721a17.973,17.973,0,0,0,.995-5c0-2.711-2.3-5-3.75-5a3.932,3.932,0,0,0-2.266.761.628.628,0,0,0-.234.489v4.239l-3.6,7.8-.15.076v13.4a8.19,8.19,0,0,0,3.125.739h11.474a2.875,2.875,0,0,0,2.832-2.184,2.812,2.812,0,0,0-.226-1.878,2.8,2.8,0,0,0,1.251-3.751A2.8,2.8,0,0,0,190.667,27.854Z" transform="translate(-170.667 -10.667)" fill="#b1b1b1"/>
      </g>
    </g>
  </g>
</svg>
