<svg xmlns="http://www.w3.org/2000/svg" width="30" height="25.925" viewBox="0 0 30 25.925">
  <g id="percent" transform="translate(0 -0.165)">
    <path id="Path_21687" data-name="Path 21687" d="M97.073,2.311h1.073V1.238h18.242V2.311h1.073V12.88a2.37,2.37,0,0,1,1.073-.107V.165H96V10.788a4.382,4.382,0,0,1,1.073-.644Zm0,0" transform="translate(-89.562)" fill="#b1b1b1"/>
    <path id="Path_21688" data-name="Path 21688" d="M133.043,47.777l1.234,1.234a.57.57,0,0,0,.644.107l11.321-5.9V33.237a1.076,1.076,0,0,1-1.073-1.073h-16.1A1.076,1.076,0,0,1,128,33.237v6.492a4.278,4.278,0,0,1,3.595,1.234l2.253,2.253a2.755,2.755,0,0,1,0,3.809Zm-.751-9.121-1.073-.107a5.878,5.878,0,1,1,11.7,1.18,5.792,5.792,0,0,1-5.794,5.311V43.967a4.829,4.829,0,0,0,0-9.657A4.875,4.875,0,0,0,132.292,38.656Zm4.292,3.7V41.285h1.073v1.073Zm0-6.438v1.073h-1.073V35.92Zm-2.575,5.58,4.829-5.9.8.7-4.829,5.9Zm0,0" transform="translate(-119.416 -29.853)" fill="#b1b1b1"/>
    <path id="Path_21689" data-name="Path 21689" d="M0,192.7v8.584a.507.507,0,0,0,.537.537H4.292v-9.657H.537A.507.507,0,0,0,0,192.7Zm0,0" transform="translate(0 -179.123)" fill="#b1b1b1"/>
    <path id="Path_21690" data-name="Path 21690" d="M103.983,163.836a1.437,1.437,0,0,0-1.395-.054l-11.964,6.224a1.617,1.617,0,0,1-1.878-.268l-5.365-5.365.751-.751,3.38,3.38.8-.8a1.556,1.556,0,0,0,0-2.253l-2.253-2.253a3.271,3.271,0,0,0-4.56,0L80,163.138v9.335l7.189,3.219a2.644,2.644,0,0,0,2.522-.215l14.271-9.228a1.451,1.451,0,0,0,.429-1.985.831.831,0,0,0-.429-.429Zm0,0" transform="translate(-74.635 -149.829)" fill="#b1b1b1"/>
  </g>
</svg>
