<svg xmlns="http://www.w3.org/2000/svg" width="30" height="35.224" viewBox="0 0 30 35.224">
  <g id="Group_11395" data-name="Group 11395" transform="translate(-68.883 -266.49)">
    <g id="Group_11394" data-name="Group 11394" transform="translate(68.883 266.49)">
      <path id="Path_21554" data-name="Path 21554" d="M71.951,429.536a.679.679,0,0,0-.266-.024,11.483,11.483,0,0,1-1.5-.1,1.048,1.048,0,0,1-.656-.364,1.951,1.951,0,0,1-.585-.988,2.776,2.776,0,0,1-.048-.355c-.025-.856,0-1.711.055-2.566.03-.459.049-.92.084-1.379a23.086,23.086,0,0,1,.754-4.884,5.951,5.951,0,0,1,.454-1.093,3.069,3.069,0,0,1,1.3-1.2c1.308-.733,2.689-1.311,4.052-1.93.166-.075.2-.052.2.154.007.736,0,1.473.014,2.209.025,1.623.018,3.245.019,4.868,0,.308,0,.311-.29.426a2.123,2.123,0,0,0-1.363,1.572,2.133,2.133,0,1,0,4.177.867,2.115,2.115,0,0,0-1.064-2.279c-.127-.068-.254-.135-.386-.192a.235.235,0,0,1-.152-.252q0-3.889,0-7.778A.244.244,0,0,1,76.9,414a17.06,17.06,0,0,0,1.842-1.08c.422-.28.53-.247.748.206q1.449,3.02,2.891,6.042c.043.091.091.179.159.311a6.067,6.067,0,0,0,.172-.836c.074-.4.133-.8.207-1.2a.4.4,0,0,0-.1-.377,2.156,2.156,0,0,1-.578-1.135,1.238,1.238,0,0,1,1.148-1.585,3.693,3.693,0,0,1,1.181.028,1.159,1.159,0,0,1,.966,1.155,1.885,1.885,0,0,1-.495,1.4.709.709,0,0,0-.176.7c.123.6.212,1.2.318,1.815.1-.035.111-.112.139-.17q1.109-2.316,2.214-4.634.391-.818.791-1.632c.142-.287.268-.331.542-.16.651.4,1.3.815,1.98,1.167a.19.19,0,0,1,.1.192c0,.587,0,1.174,0,1.76a.206.206,0,0,1-.15.216,3.72,3.72,0,0,0-2.324,2.929q-.6,2.57-1.086,5.162a1.3,1.3,0,0,0,.549,1.347,1.807,1.807,0,0,0,.45.259,3.555,3.555,0,0,1,.781.436.818.818,0,0,0,1.3-.518.839.839,0,0,0-1.022-.9.71.71,0,0,0-.2.086.535.535,0,0,1-.651-.03.518.518,0,0,1-.283-.645c.34-1.75.705-3.495,1.12-5.229a3.159,3.159,0,0,1,.886-1.557,1.509,1.509,0,0,1,2.24,0,3.421,3.421,0,0,1,.9,1.708q.6,2.5,1.073,5.019a.641.641,0,0,1-.895.751.827.827,0,0,0-1.01.126.776.776,0,0,0-.05,1.059.815.815,0,0,0,1.087.145,3.269,3.269,0,0,1,.812-.448,1.494,1.494,0,0,0,1.006-1.229,2.612,2.612,0,0,0-.092-.834c-.341-1.695-.678-3.391-1.11-5.065A4.445,4.445,0,0,0,93.358,417a2.951,2.951,0,0,0-1.271-.815c-.105-.04-.185-.084-.191-.2a7.615,7.615,0,0,1,.01-1.219c.016-.144.078-.17.2-.114a37.226,37.226,0,0,1,4.208,2.013A3.009,3.009,0,0,1,97.55,417.8a7.4,7.4,0,0,1,.6,1.705,25.36,25.36,0,0,1,.546,3.832c.11,1.384.166,2.77.185,4.159a2.194,2.194,0,0,1-.811,1.722.8.8,0,0,1-.425.18,10.16,10.16,0,0,1-1.574.112.678.678,0,0,0-.266.024Z" transform="translate(-68.883 -394.312)" fill="#82ae3f"/>
      <path id="Path_21555" data-name="Path 21555" d="M139.863,266.493a3.975,3.975,0,0,1,2.037.423,2.233,2.233,0,0,1,1.051,1.2.289.289,0,0,0,.239.212,3.128,3.128,0,0,1,2.217,1.722,6.043,6.043,0,0,1,.769,2.813q.052,1.237.106,2.474a.665.665,0,0,0,.037.229,2.9,2.9,0,0,1,.012,1.867A3.936,3.936,0,0,1,145.2,279.5a1.953,1.953,0,0,0-.47.756,8.54,8.54,0,0,1-2.026,3.166,5.017,5.017,0,0,1-2.5,1.373,3.815,3.815,0,0,1-2.738-.533,7.067,7.067,0,0,1-2.531-2.665,9.527,9.527,0,0,1-.689-1.5,1.578,1.578,0,0,0-.452-.656,3.56,3.56,0,0,1-.927-1.5,5.111,5.111,0,0,1-.316-1.451,1.428,1.428,0,0,1,.146-.784.963.963,0,0,0,.1-.434c.017-.556.013-1.113.029-1.67a6.955,6.955,0,0,1,2.7-5.458,7.67,7.67,0,0,1,3.433-1.595A4.266,4.266,0,0,1,139.863,266.493Zm4.681,8.885a7.346,7.346,0,0,0-.114-1.519,4.071,4.071,0,0,0-.979-2.084,2.039,2.039,0,0,0-1.414-.731,4.694,4.694,0,0,0-1.247.111,5.726,5.726,0,0,1-2.562,0,4.378,4.378,0,0,0-1.031-.122,2.146,2.146,0,0,0-1.721.856,4.538,4.538,0,0,0-.941,2.681,14.284,14.284,0,0,0,.066,2.561,10.8,10.8,0,0,0,1.085,3.718,5.925,5.925,0,0,0,2.415,2.609,2.621,2.621,0,0,0,2.261.249,4.615,4.615,0,0,0,1.745-1.107,7.911,7.911,0,0,0,1.744-2.883A13.48,13.48,0,0,0,144.543,275.378Z" transform="translate(-124.521 -266.49)" fill="#82ae3f"/>
    </g>
  </g>
</svg>
