<svg xmlns="http://www.w3.org/2000/svg" width="30" height="25.448" viewBox="0 0 30 25.448">
  <g id="Group_11431" data-name="Group 11431" transform="translate(8810 2499)">
    <g id="team" transform="translate(-8810 -2499)">
      <g id="Group_11420" data-name="Group 11420" transform="translate(23.349 13.739)">
        <g id="Group_11419" data-name="Group 11419">
          <path id="Path_21706" data-name="Path 21706" d="M400.814,273.32h-2.32a6.035,6.035,0,0,1,.366,2.074v8.769a2.585,2.585,0,0,1-.149.866h3.836a2.6,2.6,0,0,0,2.6-2.6v-4.78A4.336,4.336,0,0,0,400.814,273.32Z" transform="translate(-398.494 -273.32)" fill="#b1b1b1"/>
        </g>
      </g>
      <g id="Group_11422" data-name="Group 11422" transform="translate(0 13.739)">
        <g id="Group_11421" data-name="Group 11421">
          <path id="Path_21707" data-name="Path 21707" d="M6.285,275.4a6.035,6.035,0,0,1,.366-2.074H4.331A4.336,4.336,0,0,0,0,277.652v4.78a2.6,2.6,0,0,0,2.6,2.6H6.434a2.587,2.587,0,0,1-.149-.866Z" transform="translate(0 -273.321)" fill="#b1b1b1"/>
        </g>
      </g>
      <g id="Group_11424" data-name="Group 11424" transform="translate(8.017 11.483)">
        <g id="Group_11423" data-name="Group 11423">
          <path id="Path_21708" data-name="Path 21708" d="M146.464,234.815h-5.3a4.336,4.336,0,0,0-4.331,4.331v8.769a.866.866,0,0,0,.866.866h12.233a.866.866,0,0,0,.866-.866v-8.769A4.336,4.336,0,0,0,146.464,234.815Z" transform="translate(-136.829 -234.815)" fill="#b1b1b1"/>
        </g>
      </g>
      <g id="Group_11426" data-name="Group 11426" transform="translate(9.792 0)">
        <g id="Group_11425" data-name="Group 11425">
          <path id="Path_21709" data-name="Path 21709" d="M172.322,38.84a5.207,5.207,0,1,0,5.208,5.208A5.214,5.214,0,0,0,172.322,38.84Z" transform="translate(-167.114 -38.84)" fill="#b1b1b1"/>
        </g>
      </g>
      <g id="Group_11428" data-name="Group 11428" transform="translate(1.96 4.854)">
        <g id="Group_11427" data-name="Group 11427">
          <path id="Path_21710" data-name="Path 21710" d="M37.338,121.689a3.893,3.893,0,1,0,3.9,3.9A3.9,3.9,0,0,0,37.338,121.689Z" transform="translate(-33.443 -121.689)" fill="#b1b1b1"/>
        </g>
      </g>
      <g id="Group_11430" data-name="Group 11430" transform="translate(20.25 4.854)">
        <g id="Group_11429" data-name="Group 11429">
          <path id="Path_21711" data-name="Path 21711" d="M349.5,121.689a3.9,3.9,0,1,0,3.9,3.9A3.9,3.9,0,0,0,349.5,121.689Z" transform="translate(-345.607 -121.689)" fill="#b1b1b1"/>
        </g>
      </g>
    </g>
    <path id="Path_21712" data-name="Path 21712" d="M8.307.864a2.954,2.954,0,0,0-4.9,3L.08,7.191A.268.268,0,0,0,0,7.381V8.9a.268.268,0,0,0,.269.269h1.52a.268.268,0,0,0,.19-.079l.38-.38a.269.269,0,0,0,.077-.221l-.047-.408.566-.053A.268.268,0,0,0,3.2,7.786L3.25,7.22l.408.047a.264.264,0,0,0,.21-.066.269.269,0,0,0,.09-.2V6.5h.491a.268.268,0,0,0,.19-.079l.689-.68a2.909,2.909,0,0,0,2.979-.7A2.958,2.958,0,0,0,8.307.864Zm-.76,1.9a.806.806,0,1,1,0-1.14A.807.807,0,0,1,7.547,2.763Z" transform="translate(-8799.586 -2485.069)" fill="#fff"/>
  </g>
</svg>
