<svg xmlns="http://www.w3.org/2000/svg" width="30" height="30" viewBox="0 0 30 30">
  <g id="Group_11417" data-name="Group 11417" transform="translate(8115 2853)">
    <g id="bell" transform="translate(-8115 -2853)">
      <g id="Group_11413" data-name="Group 11413">
        <g id="Group_11412" data-name="Group 11412">
          <path id="Path_21703" data-name="Path 21703" d="M67.586,25.3l-2.146-3.577a10.627,10.627,0,0,1-1.515-5.467V13.125a8.761,8.761,0,0,0-6.25-8.381V2.5a2.5,2.5,0,0,0-5,0V4.744a8.761,8.761,0,0,0-6.25,8.381v3.134a10.633,10.633,0,0,1-1.514,5.466L42.764,25.3a.626.626,0,0,0,.535.948h23.75a.625.625,0,0,0,.536-.946Z" transform="translate(-42.675)" fill="#b1b1b1"/>
        </g>
      </g>
      <g id="Group_11415" data-name="Group 11415" transform="translate(8.563 27.5)">
        <g id="Group_11414" data-name="Group 11414">
          <path id="Path_21704" data-name="Path 21704" d="M188.815,469.333a4.349,4.349,0,0,0,7.872,0Z" transform="translate(-188.815 -469.333)" fill="#b1b1b1"/>
        </g>
      </g>
    </g>
    <g id="Group_11416" data-name="Group 11416" transform="translate(-8099.531 -2839.758)">
      <circle id="Ellipse_762" data-name="Ellipse 762" cx="7.266" cy="7.266" r="7.266" fill="#fff"/>
      <path id="gear_3_" data-name="gear (3)" d="M12,4.743l-.944-.205a5.138,5.138,0,0,0-.3-.733l.523-.813a.367.367,0,0,0-.049-.458L9.75,1.063a.367.367,0,0,0-.458-.049l-.813.523a5.139,5.139,0,0,0-.733-.3L7.541.289A.367.367,0,0,0,7.182,0H5.1a.367.367,0,0,0-.359.289l-.205.944a5.138,5.138,0,0,0-.733.3l-.813-.523a.367.367,0,0,0-.458.049L1.063,2.534a.367.367,0,0,0-.049.458l.523.813a5.139,5.139,0,0,0-.3.733l-.944.205A.367.367,0,0,0,0,5.1v2.08a.367.367,0,0,0,.289.359l.944.205a5.138,5.138,0,0,0,.3.733l-.523.813a.367.367,0,0,0,.049.458l1.471,1.471a.367.367,0,0,0,.458.049l.813-.523a5.138,5.138,0,0,0,.733.3L4.743,12a.367.367,0,0,0,.359.289h2.08A.367.367,0,0,0,7.541,12l.205-.944a5.138,5.138,0,0,0,.733-.3l.813.523a.367.367,0,0,0,.458-.049L11.221,9.75a.367.367,0,0,0,.049-.458l-.523-.813a5.138,5.138,0,0,0,.3-.733L12,7.541a.367.367,0,0,0,.289-.359V5.1A.367.367,0,0,0,12,4.743Zm-3.651,1.4a2.2,2.2,0,1,1-2.2-2.2A2.2,2.2,0,0,1,8.345,6.142Zm0,0" transform="translate(1.123 1.123)" fill="#b1b1b1"/>
    </g>
  </g>
</svg>
