<svg xmlns="http://www.w3.org/2000/svg" width="30" height="26.617" viewBox="0 0 30 26.617">
  <g id="Group_11410" data-name="Group 11410" transform="translate(-1381.754 -674.948)">
    <g id="Group_11409" data-name="Group 11409" transform="translate(1381.754 674.949)">
      <path id="Path_21682" data-name="Path 21682" d="M1398.029,738.565c-1.448,0-2.9-.01-4.343.008-.348,0-.979-.166-.563.61.1.183-.106.327-.231.453-.912.916-1.835,1.821-2.736,2.748-.336.345-.589.3-.906-.023q-3.61-3.629-7.241-7.237c-.374-.371-.31-.629.033-.962.854-.827,1.7-1.662,2.521-2.524.426-.45.74-.4,1.153.02.715.729.73.7,1.5-.036a14.008,14.008,0,0,1,2.566-2.232,4.3,4.3,0,0,1,2.358-.646,14.942,14.942,0,0,0,1.86-.006,3.714,3.714,0,0,1,2.927.964,1.8,1.8,0,0,0,1.289.423c1.034-.012,2.068,0,3.1,0a3.484,3.484,0,0,1,1.072.133,2.912,2.912,0,0,0,3.441-1.359,3.857,3.857,0,0,1,3.734-2.163,3.642,3.642,0,0,1,.982.2c1.3.46,1.485.97.879,2.188a26.742,26.742,0,0,1-7.488,8.876,2.54,2.54,0,0,1-1.718.58C1400.821,738.543,1399.425,738.564,1398.029,738.565Zm-.491-1.285c1.423,0,2.846-.02,4.268.01a2.213,2.213,0,0,0,1.492-.517c1.122-.883,2.086-1.931,3.126-2.9a23.608,23.608,0,0,0,3.624-5.01c.3-.48.132-.7-.383-.783a2.228,2.228,0,0,0-2.471,1.222,4.966,4.966,0,0,1-2.572,2.211.957.957,0,0,0-.637.793,2.428,2.428,0,0,1-2.72,2.358c-1.655.012-3.311,0-4.966,0-.47,0-.893-.011-.876-.671.016-.619.429-.61.859-.611q2.328,0,4.656,0a2.148,2.148,0,0,0,1.195-.263.877.877,0,0,0,.442-.848.759.759,0,0,0-.6-.728,3.771,3.771,0,0,0-.914-.132q-1.629-.024-3.259,0a2,2,0,0,1-1.443-.462,3.183,3.183,0,0,0-2.571-.815,13.787,13.787,0,0,1-1.706,0,3.069,3.069,0,0,0-1.958.612,29.617,29.617,0,0,0-2.219,2.05c-.428.37-.466.647-.027,1.058.888.83,1.745,1.693,2.581,2.576.651.688,1.249,1.4,2.35.873a1.752,1.752,0,0,1,.692-.024Zm-12.472-4.114c-.437.187-.693.636-1.072.938-.484.384-.44.7,0,1.122,1.52,1.476,2.992,3,4.508,4.483,1.414,1.38.916,1.475,2.483-.043.3-.294.341-.514.02-.831-1.8-1.781-3.586-3.578-5.379-5.367A.726.726,0,0,0,1385.066,733.165Z" transform="translate(-1381.754 -716.005)" fill="#b1b1b1"/>
      <path id="Path_21683" data-name="Path 21683" d="M1433.106,706.546q0-.853,0-1.707a1.31,1.31,0,0,0-.981-1.337,7.021,7.021,0,0,0-4.5-.034,1.475,1.475,0,0,0-1.146,1.616c.039.877,0,1.758.006,2.637,0,.433-.151.677-.63.68s-.653-.212-.65-.659c.005-.827-.017-1.655,0-2.482.011-.517-.185-.762-.721-.762a9.5,9.5,0,0,0-2.692.238,1.446,1.446,0,0,0-1.205,1.564c.014.491-.009.982,0,1.474,0,.469-.237.633-.681.626s-.6-.23-.595-.632c0-.724-.037-1.451.017-2.171a2.336,2.336,0,0,1,1.787-2.026,7.876,7.876,0,0,1,3.818-.408.959.959,0,0,0,.935-.2,3.4,3.4,0,0,1,2.15-.977c2.042-.249,4.089-.419,5.825,1.054a.87.87,0,0,0,.734.112,8.352,8.352,0,0,1,4.258.559,2.264,2.264,0,0,1,1.458,2.178c-.019.365-.137.6-.535.609-.352.009-.709,0-.738-.472-.05-.791-.588-1.089-1.244-1.293a8.628,8.628,0,0,0-2.77-.226c-.475.009-.617.271-.613.7.008,1.008-.006,2.017,0,3.025,0,.469-.08.812-.671.8-.555-.013-.615-.352-.612-.779.005-.569,0-1.138,0-1.707Z" transform="translate(-1411.527 -696.258)" fill="#b1b1b1"/>
      <path id="Path_21684" data-name="Path 21684" d="M1494.057,676.026a2.474,2.474,0,0,1-1,2.052,2.866,2.866,0,0,1-3.969-.686,2.768,2.768,0,0,1,.041-2.9,2.491,2.491,0,0,1,2.479-1.071,2.4,2.4,0,0,1,2.154,1.291A2.678,2.678,0,0,1,1494.057,676.026Zm-1.362-.018a1.922,1.922,0,0,0-.243-1.013,1.249,1.249,0,0,0-1.034-.555,1.125,1.125,0,0,0-1.069.491,1.772,1.772,0,0,0,0,2.045,1.176,1.176,0,0,0,1.144.488,1.076,1.076,0,0,0,1.059-.679A5.429,5.429,0,0,0,1492.7,676.008Z" transform="translate(-1466.554 -672.34)" fill="#b1b1b1"/>
      <path id="Path_21685" data-name="Path 21685" d="M1430.689,675.982a2.2,2.2,0,0,1-.763,1.928,2.878,2.878,0,0,1-4.061-.388,2.738,2.738,0,0,1-.18-2.84,2.676,2.676,0,0,1,2.8-1.259,2.324,2.324,0,0,1,2.156,1.829A6.205,6.205,0,0,1,1430.689,675.982Zm-3.9-.07h-.022a3.4,3.4,0,0,0,.041.606,1.124,1.124,0,0,0,1.188.944,1.162,1.162,0,0,0,1.289-.85,2.019,2.019,0,0,0,0-1.322,1.3,1.3,0,0,0-2.49.2A3.475,3.475,0,0,0,1426.794,675.912Z" transform="translate(-1416.343 -672.338)" fill="#b1b1b1"/>
      <path id="Path_21686" data-name="Path 21686" d="M1457.485,669.355a2,2,0,0,1,1.117-2.119c1.645-.9,3.8-.073,4.025,1.53a6.417,6.417,0,0,1,.02,1.219c-.067,1.225-1.124,2.038-2.615,2.029a2.293,2.293,0,0,1-2.545-2.017C1457.474,669.795,1457.485,669.591,1457.485,669.355Zm3.882.151h.021a3.368,3.368,0,0,0-.07-.607,1.182,1.182,0,0,0-1.225-.935,1.222,1.222,0,0,0-1.284.956,3.153,3.153,0,0,0-.037.853,1.265,1.265,0,0,0,1.314,1.217,1.249,1.249,0,0,0,1.281-1.238C1461.372,669.669,1461.366,669.587,1461.366,669.506Z" transform="translate(-1441.793 -666.865)" fill="#b1b1b1"/>
    </g>
  </g>
</svg>
